<?xml version="1.0" encoding="UTF-8"?>
<svg id="Calque_1" data-name="Calque 1" xmlns="http://www.w3.org/2000/svg" version="1.1" viewBox="0 0 140 42">
  <defs>
    <style>
      .cls-1 {
        fill: #fff;
        stroke-width: 0px;
      }
    </style>
  </defs>
  <path class="cls-1" d="M129,29h11v9h-11v-9Z"/>
  <path class="cls-1" d="M27.2,38H3.2V3h24v7H10.3v7h11.5v7h-11.5v7h17v7Z"/>
  <path class="cls-1" d="M35.7,13.5c0-1.4.3-2.8.8-4.1.6-1.3,1.3-2.4,2.2-3.3,1-1,2.1-1.7,3.3-2.3,1.3-.6,2.6-.8,4.1-.8h16.1v7h-16.1c-.5,0-.9,0-1.4.3-.4.2-.8.4-1.1.8-.3.3-.6.7-.7,1.1-.2.4-.3.9-.3,1.4s0,1,.3,1.4c.2.4.4.8.7,1.1.3.3.7.6,1.1.7.4.2.9.3,1.4.3h7c1.4,0,2.8.3,4.1.8,1.3.5,2.4,1.3,3.3,2.2,1,.9,1.7,2.1,2.2,3.3.6,1.3.8,2.6.8,4.1s-.3,2.8-.8,4.1c-.5,1.3-1.3,2.4-2.2,3.3s-2.1,1.7-3.3,2.2c-1.3.6-2.6.8-4.1.8h-15.6v-7h15.6c.5,0,.9,0,1.4-.3.4-.2.8-.4,1.1-.7.3-.3.6-.7.8-1.1.2-.4.3-.9.3-1.4s0-.9-.3-1.4c-.2-.4-.4-.8-.8-1.1-.3-.3-.7-.6-1.1-.8-.4-.2-.9-.3-1.4-.3h-7c-1.4,0-2.8-.3-4.1-.8-1.3-.6-2.4-1.3-3.3-2.2-.9-1-1.7-2.1-2.2-3.3-.6-1.3-.8-2.7-.8-4.1Z"/>
  <path class="cls-1" d="M102.2,34.5c-1.6,1.4-3.4,2.4-5.4,3.2-2,.7-4.1,1.1-6.2,1.1s-3.3-.2-4.8-.7c-1.5-.4-3-1-4.3-1.8-1.3-.8-2.6-1.7-3.7-2.8-1.1-1.1-2.1-2.3-2.8-3.7-.8-1.4-1.4-2.8-1.8-4.3-.4-1.5-.6-3.1-.6-4.8s.2-3.3.6-4.8c.4-1.5,1-3,1.8-4.3.8-1.4,1.7-2.6,2.8-3.7,1.1-1.1,2.3-2.1,3.7-2.8,1.3-.8,2.8-1.4,4.3-1.8,1.5-.4,3.1-.7,4.8-.7s4.2.4,6.2,1.1c2,.7,3.8,1.8,5.4,3.2l-3.7,6.1c-1.1-1.1-2.3-1.9-3.7-2.5-1.4-.6-2.8-.9-4.4-.9s-3,.3-4.3.9c-1.3.6-2.5,1.4-3.5,2.4-1,1-1.8,2.2-2.4,3.5-.6,1.3-.9,2.8-.9,4.3s.3,3,.9,4.3c.6,1.4,1.4,2.5,2.4,3.5,1,1,2.2,1.8,3.5,2.4,1.4.6,2.8.9,4.3.9s1.7-.1,2.6-.3c.8-.2,1.6-.5,2.4-.9v-10h6.8v13.8Z"/>
  <path class="cls-1" d="M120.6,38h-7V3h7v35Z"/>
</svg>